<?xml version="1.0" encoding="UTF-8" standalone="no"?>
<svg
   xmlns:dc="http://purl.org/dc/elements/1.1/"
   xmlns:cc="http://creativecommons.org/ns#"
   xmlns:rdf="http://www.w3.org/1999/02/22-rdf-syntax-ns#"
   xmlns:svg="http://www.w3.org/2000/svg"
   xmlns="http://www.w3.org/2000/svg"
   version="1.1"
   viewBox="-4202 0 5738.9999 1766.459"
   style="image-rendering:optimizeQuality;shape-rendering:geometricPrecision;"
   height="199.0096"
   width="445.79083"
   xml:space="preserve"><metadata
     id="metadata23"><rdf:RDF><cc:Work
         rdf:about=""><dc:format>image/svg+xml</dc:format><dc:type
           rdf:resource="http://purl.org/dc/dcmitype/StillImage" /><dc:title></dc:title></cc:Work></rdf:RDF></metadata>

<path
     d="M -1875.8155,925.82143 -3698.36,1541.1095 c -261.3344,-190.4146 -424.5469,-433.2903 -424.5469,-661.5935 0,-685.88115 1252.2675,-1244.49544 2788.2139,-1244.49544 1534.97492,0 2787.2424,558.61429 2787.2424,1244.49544 0,685.8811 -1252.26748,1244.4954 -2787.2424,1244.4954 -239.9613,0 -490.6091,-19.4301 -718.9123,-43.7176 L -737.21858,541.43296 -868.12521,586.47755"
     id="path13"
     style="opacity:1;fill:none;stroke:#4a2769;stroke-width:64.36875153;stroke-linecap:butt;stroke-linejoin:miter;stroke-miterlimit:4;" /><path
     id="path15"
     d="m -849.81128,650.29027 c -237.32012,-650.9474859 -525.71352,-780.49842 -626.51402,-786.60624 -100.8005,-6.10782 -130.1392,4.58781 -171.4342,26.92136 -321.5614,173.910066 -388.9449,354.77064 -160.6417,1163.06111 67.0564,237.1229 113.1969,348.8336 190.582,494.409"
     style="fill:none;stroke:#dd137b;stroke-width:64.36875153;stroke-miterlimit:4;" /><path
     d="M -2053.6054,2080.2939 -737.21858,541.43296"
     id="path13-8"
     style="opacity:1;fill:none;stroke:#4a2769;stroke-width:64.36875153;stroke-linecap:butt;stroke-linejoin:miter;stroke-miterlimit:4;shape-rendering:geometricPrecision;" /></svg>
